# AST/ASF file generated using VICON BodyLanguage
# -----------------------------------------------
:version 1.10
:name VICON
:units
  mass 1.0
  length 0.45
  angle deg
:documentation
   .ast/.asf automatically generated from VICON data using
   VICON BodyBuilder and BodyLanguage model FoxedUp or BRILLIANT.MOD
:root
   order TX TY TZ RX RY RZ
   axis XYZ
   position 0 0 0  
   orientation 0 0 0 
:bonedata
  begin
     id 1 
     name lhipjoint
     direction 0.822369 -0.411937 0.392449 
     length 3.8167 
     axis 0 0 0  XYZ
  end
  begin
     id 2 
     name lfemur
     direction 0.34202 -0.939693 0  
     length 6.16791  
     axis 0 0 20  XYZ
    dof rx ry rz
    limits (-160.0 20.0)
           (-70.0 70.0)
           (-60.0 70.0)
  end
  begin
     id 3 
     name ltibia
     direction 0.34202 -0.939693 0   
     length 7.07101   
     axis 0 0 20   XYZ
    dof rx
    limits (-10.0 170.0)
  end
  begin
     id 4 
     name lfoot
     direction 0.028254 -0.0776273 0.996582   
     length 1.66799   
     axis -90 7.62852e-016 20   XYZ
    dof rx rz
    limits (-45.0 90.0)
           (-70.0 20.0)
  end
  begin
     id 5 
     name ltoes
     direction 1.53483e-011 -4.21688e-011 1   
     length 0.851674   
     axis -90 7.62852e-016 20   XYZ
    dof rx
    limits (-90.0 20.0)
  end
  begin
     id 6 
     name rhipjoint
     direction -0.822466 -0.411836 0.392353   
     length 3.81764  
     axis 0 0 0  XYZ 
  end
  begin
     id 7 
     name rfemur
     direction -0.34202 -0.939693 0   
     length 6.28636   
     axis 0 0 -20   XYZ
    dof rx ry rz
    limits (-160.0 20.0)
           (-70.0 70.0)
           (-70.0 60.0)
  end
  begin
     id 8 
     name rtibia
     direction -0.34202 -0.939693 0   
     length 6.85621   
     axis 0 0 -20   XYZ
    dof rx
    limits (-10.0 170.0)
 end
 begin
     id 9 
     name rfoot
     direction -0.0553036 -0.151945 0.98684   
     length 1.57293  
     axis -90 -7.62852e-016 -20   XYZ
    dof rx rz
    limits (-45.0 90.0)
           (-20.0 70.0)
  end
  begin
     id 10 
     name rtoes
     direction -1.53592e-011 -4.21964e-011 1   
     length 0.802812   
     axis -90 -7.62852e-016 -20   XYZ
    dof rx
    limits (-90.0 20.0)
  end
  begin
     id 11 
     name lowerback
     direction 0.00654913 0.996475 -0.0836396   
     length 1.97212   
     axis 0 0 0   XYZ
    dof rx ry rz
    limits (-20.0 45.0)
           (-30.0 30.0)
           (-30.0 30.0)
  end
  begin
     id 12 
     name upperback
     direction 0.0111875 0.994527 0.103877   
     length 1.89704   
     axis 0 0 0   XYZ
    dof rx ry rz
    limits (-20.0 45.0)
           (-30.0 30.0)
           (-30.0 30.0)
  end
  begin
     id 13 
     name thorax
     direction 0.00473652 0.989004 0.147814   
     length 1.94516   
     axis 0 0 0   XYZ
    dof rx ry rz
    limits (-20.0 45.0)
           (-30.0 30.0)
           (-30.0 30.0)
  end
  begin
     id 14 
     name lowerneck
     direction -0.00925808 0.999011 0.0434791   
     length 1.81771   
     axis 0 0 0   XYZ
    dof rx ry rz
    limits (-20.0 45.0)
           (-30.0 30.0)
           (-30.0 30.0)
  end
  begin
     id 15 
     name upperneck
     direction 0.00451595 0.964412 -0.264365   
     length 1.80434   
     axis 0 0 0   XYZ
    dof rx ry rz
    limits (-20.0 45.0)
           (-30.0 30.0)
           (-30.0 30.0)
  end
  begin
     id 16
     name head
     direction -0.00110849 0.995756 -0.0920241  
     length 1.84006  
     axis 0 0 0   XYZ
    dof rx ry rz
    limits (-20.0 45.0)
           (-30.0 30.0)
           (-30.0 30.0)
  end
  begin
     id 17 
     name lclavicle
     direction 0.921253 0.385213 0.0538957  
     length 3.67415  
     axis 0 0 0   XYZ
    dof ry rz
    limits (-20.0 10.0)
           (0.0 20.0)
  end
  begin
     id 18 
     name lhumerus
     direction 1 -4.48961e-011 6.73441e-028   
     length 4.32712   
     axis 180 -30 -90   XYZ
    dof rx ry rz
    limits (-60.0 90.0)
           (-90.0 90.0)
           (-90.0 90.0)
  end
  begin
     id 19
     name lradius
     direction 1 -4.48985e-011 -9.53507e-028   
     length 3.28587   
     axis 180 -30 -90   XYZ
    dof rx
    limits (-10.0 170.0)
  end
  begin
     id 20
     name lwrist
     direction 1 -4.48951e-011 -4.67472e-027   
     length 1.64293   
     axis 1.65735e-015 90 90   XYZ
    dof ry
    limits (-180.0 0.0)
 end
  begin
     id 21 
     name lhand
     direction 1 -4.48946e-011 -9.34945e-027   
     length 0.433158   
     axis 5.96574e-015 90 90   XYZ
    dof rx rz
    limits (-90.0 90.0)
           (-45.0 45.0)
  end
  begin
     id 22 
     name lfingers
     direction 1 -4.48882e-011 -1.86989e-026   
     length 0.349224   
     axis 1.19315e-014 90 90   XYZ
    dof rx
    limits (0.0 90.0)
  end
  begin
     id 23
     name lthumb
     direction 0.707107 -6.3493e-011 0.707107   
     length 0.501417   
     axis -90 45 2.85299e-015   XYZ
    dof rx rz
    limits (-45.0 45.0)
           (-45.0 45.0)
  end
  begin
     id 24 
     name rclavicle
     direction -0.884378 0.46502 -0.0403866   
     length 3.50218  
     axis 0 0 0   XYZ 
    dof ry rz
    limits (-10.0 20.0)
           (-20.0 0.0)
  end
  begin
     id 25 
     name rhumerus
     direction -1 -4.48964e-011 1.58188e-027  
     length 4.29104   
     axis 180 30 90   XYZ
    dof rx ry rz
    limits (-90.0 60.0)
           (-90.0 90.0)
           (-90.0 90.0)
  end
  begin
     id 26 
     name rradius
     direction -1 -4.48978e-011 -1.9722e-027   
     length 3.2272   
     axis 180 30 90   XYZ
    dof rx
    limits (-10.0 170.0)
  end
  begin
     id 27 
     name rwrist
     direction -1 -4.48969e-011 -4.67472e-027   
     length 1.6136   
     axis 1.65735e-015 -90 -90   XYZ
    dof ry
    limits (-180.0 0.0)
  end
  begin
     id 28
     name rhand
     direction -1 -4.48846e-011 -9.34945e-027   
     length 0.543623   
     axis 5.96574e-015 -90 -90   XYZ
    dof rx rz
    limits (-90.0 90.0)
           (-45.0 45.0)
  end
  begin
     id 29
     name rfingers
     direction -1 -4.49074e-011 -1.86989e-026   
     length 0.438283   
     axis 1.19315e-014 -90 -90   XYZ
    dof rx
    limits (0.0 90.0)
  end
  begin
     id 30
     name rthumb
     direction -0.707107 -6.34834e-011 0.707107   
     length 0.629289   
     axis -90 -45 -2.85299e-015   XYZ
    dof rx rz
    limits (-45.0 45.0)
           (-45.0 45.0)
  end
:hierarchy
  begin
    root lhipjoint rhipjoint lowerback
    lhipjoint lfemur
    lfemur ltibia
    ltibia lfoot
    lfoot ltoes
    rhipjoint rfemur
    rfemur rtibia
    rtibia rfoot
    rfoot rtoes
    lowerback upperback
    upperback thorax
    thorax lowerneck lclavicle rclavicle
    lowerneck upperneck
    upperneck head
    lclavicle lhumerus
    lhumerus lradius
    lradius lwrist
    lwrist lhand lthumb
    lhand lfingers
    rclavicle rhumerus
    rhumerus rradius
    rradius rwrist
    rwrist rhand rthumb
    rhand rfingers
  end

#!OML:ASF H:\GeneralSubjects\Female5\Project 1\Capture day 1\Session 1\Female5.ASF
:FULLY-SPECIFIED
:DEGREES
146
root 5.07147 16.1032 -0.0268114 139.341 -83.52 -137.118
lowerback 6.75325 1.34799 1.84535
upperback -10.0979 2.0734 2.43238
thorax -14.9959 0.815821 1.31147
lowerneck -10.5658 -1.44763 -2.96717
upperneck 35.0355 -2.22808 -1.8236
head 13.615 -2.163 -0.658844
rclavicle -2.48481e-016 -1.17283e-014
rhumerus 33.396 -14.2217 -51.95
rradius 93.2724
rwrist -37.9609
rhand -41.0149 -15.0528
rfingers 7.12502
rthumb -13.946 -44.5651
lclavicle -2.48481e-016 -1.17283e-014
lhumerus 26.9695 8.44762 48.6222
lradius 91.2564
lwrist 26.8101
lhand -39.6651 31.3444
lfingers 7.12502
lthumb -12.6449 -299.058
rfemur 7.60518 21.5507 30.2327
rtibia -0.469126
rfoot -30.5084 -27.0451
rtoes 3.67775
lfemur 2.39919 -23.7001 -17.0412
ltibia 8.2746
lfoot -36.4581 -4.34299
ltoes -24.1798
147
root 5.08024 16.0979 -0.0257886 140.487 -83.5652 -138.36
lowerback 6.70706 1.40668 1.95807
upperback -10.1459 2.14528 2.24671
thorax -15.0113 0.82241 1.02845
lowerneck -10.4251 -1.47795 -2.93283
upperneck 35.3333 -2.36473 -1.71026
head 13.7184 -2.21986 -0.646923
rclavicle 2.05245e-014 -3.10104e-014
rhumerus 30.9497 -11.1969 -51.5607
rradius 91.7792
rwrist -39.3799
rhand -39.6981 -14.3279
rfingers 7.12502
rthumb -12.6768 -43.9231
lclavicle 2.05245e-014 -3.10104e-014
lhumerus 25.3827 4.76973 48.533
lradius 90.2407
lwrist 30.6593
lhand -38.4535 30.425
lfingers 7.12502
lthumb -11.4766 -299.909
rfemur 7.59651 21.4847 30.0737
rtibia -0.334272
rfoot -30.6083 -26.7726
rtoes 4.42233
lfemur 2.61783 -23.7269 -17.2701
ltibia 8.0718
lfoot -36.4771 -4.34658
ltoes -23.9471
148
root 5.08859 16.0926 -0.0234032 141.569 -83.5684 -139.484
lowerback 6.62891 1.46506 2.14782
upperback -10.1967 2.22387 2.05068
thorax -15.0055 0.822403 0.690473
lowerneck -10.2603 -1.46103 -3.00775
upperneck 35.4921 -2.46859 -1.37407
head 13.7596 -2.24088 -0.516868
rclavicle 9.29318e-015 2.10712e-014
rhumerus 28.2909 -7.66489 -50.6408
rradius 90.1196
rwrist -40.7711
rhand -38.8251 -14.3753
rfingers 7.12502
rthumb -11.835 -44.0209
lclavicle 9.29318e-015 2.10712e-014
lhumerus 23.5134 0.64398 47.766
lradius 89.1966
lwrist 31.6837
lhand -37.7474 29.412
lfingers 7.12502
lthumb -10.7956 -300.885
rfemur 7.49516 21.2846 29.8917
rtibia -0.180501
rfoot -30.4516 -26.4339
rtoes 4.78069
lfemur 2.86053 -23.8672 -17.4932
ltibia 7.82303
lfoot -36.6614 -4.44517
ltoes -23.7726
149
root 5.09961 16.0888 -0.0206803 142.472 -83.5261 -140.439
lowerback 6.61125 1.54519 2.36777
upperback -10.2014 2.34095 1.85451
thorax -14.9803 0.838815 0.326656
lowerneck -10.1974 -1.52451 -3.00426
upperneck 35.5176 -2.65101 -1.1491
head 13.7619 -2.29205 -0.453637
rclavicle -2.41523e-014 -4.55217e-014
rhumerus 25.4477 -3.60561 -48.8606
rradius 88.3704
rwrist -42.3868
rhand -38.3899 -15.2265
rfingers 7.12502
rthumb -11.4153 -44.8957
lclavicle -2.41523e-014 -4.55217e-014
lhumerus 21.5539 -3.83128 46.5609
lradius 88.1992
lwrist 30.3771
lhand -37.6981 27.5981
lfingers 7.12502
lthumb -10.7481 -302.697
rfemur 7.35853 21.166 29.7628
rtibia 0.00670989
rfoot -30.3068 -26.2605
rtoes 4.67295
lfemur 3.02841 -23.9486 -17.6239
ltibia 7.63236
lfoot -36.856 -3.79852
ltoes -24.8333
150
root 5.10772 16.0846 -0.0170013 143.697 -83.4704 -141.684
lowerback 6.55318 1.67038 2.58241
upperback -10.2204 2.51144 1.61681
thorax -14.942 0.877778 -0.0890559
lowerneck -10.2268 -1.70942 -2.83614
upperneck 35.5869 -2.98526 -1.1224
head 13.7998 -2.41382 -0.523453
rclavicle -1.78906e-015 -1.44119e-015
rhumerus 22.3108 1.22545 -46.3113
rradius 86.8449
rwrist -44.3479
rhand -38.2954 -15.9068
rfingers 7.12502
rthumb -11.3241 -45.5811
lclavicle -1.78906e-015 -1.44119e-015
lhumerus 19.5024 -9.28593 45.0892
lradius 87.4145
lwrist 26.255
lhand -38.711 26.2385
lfingers 7.12502
lthumb -11.725 -304.11
rfemur 7.20943 21.1036 29.604
rtibia 0.171061
rfoot -30.3883 -25.9576
rtoes 5.3986
lfemur 3.09614 -23.8352 -17.7115
ltibia 7.55803
lfoot -36.8428 -3.22581
ltoes -25.855
151
root 5.11115 16.0803 -0.010424 145.145 -83.443 -143.104
lowerback 6.41632 1.73024 2.66161
upperback -10.2135 2.58219 1.48946
thorax -14.8332 0.894599 -0.284622
lowerneck -10.5111 -1.76451 -2.73681
upperneck 35.7352 -3.10008 -1.07607
head 13.9302 -2.44363 -0.548135
rclavicle 2.77056e-015 -2.08724e-015
rhumerus 19.4838 7.21986 -43.2305
rradius 85.7744
rwrist -46.7082
rhand -38.3673 -15.813
rfingers 7.12502
rthumb -11.3935 -45.4834
lclavicle 2.77056e-015 -2.08724e-015
lhumerus 17.187 -15.1051 43.5311
lradius 87.0592
lwrist 21.3885
lhand -38.6859 24.7676
lfingers 7.12502
lthumb -11.7008 -305.579
rfemur 7.07243 20.926 29.3523
rtibia 0.225922
rfoot -30.3231 -25.5609
rtoes 6.21316
lfemur 3.09122 -23.6544 -17.841
ltibia 7.54892
lfoot -36.748 -3.70328
ltoes -25.0418
152
root 5.11567 16.0775 -0.00462573 146.41 -83.4048 -144.333
lowerback 6.3288 1.69246 2.55764
upperback -10.1244 2.52125 1.55288
thorax -14.6773 0.886673 -0.142857
lowerneck -10.9736 -1.75159 -2.80365
upperneck 35.7323 -3.03161 -1.05124
head 14.0342 -2.40867 -0.523689
rclavicle 6.21202e-015 -1.32192e-014
rhumerus 17.4342 14.2201 -39.5067
rradius 85.1097
rwrist -48.9875
rhand -37.6516 -16.0042
rfingers 7.12502
rthumb -10.7033 -45.7115
lclavicle 6.21202e-015 -1.32192e-014
lhumerus 14.5621 -20.9195 41.982
lradius 87.2184
lwrist 16.1481
lhand -38.0715 23.5399
lfingers 7.12502
lthumb -11.1083 -306.774
rfemur 6.9264 20.8357 29.1409
rtibia 0.274722
rfoot -30.237 -25.3116
rtoes 6.56808
lfemur 3.03622 -23.5825 -17.9436
ltibia 7.56848
lfoot -36.7893 -4.19016
ltoes -24.0296
153
root 5.11983 16.0758 -0.000804876 147.473 -83.3427 -145.31
lowerback 6.27831 1.60413 2.34535
upperback -10.0211 2.39189 1.73161
thorax -14.5397 0.865927 0.198489
lowerneck -11.4265 -1.69198 -2.89682
upperneck 35.539 -2.84148 -1.09439
head 14.0474 -2.32631 -0.497506
rclavicle 4.52235e-015 2.14687e-014
rhumerus 16.0129 22.052 -35.0534
rradius 84.8587
rwrist -50.3261
rhand -35.1008 -16.897
rfingers 7.12502
rthumb -8.24205 -46.7162
lclavicle 4.52235e-015 2.14687e-014
lhumerus 11.7116 -26.8889 40.5786
lradius 87.6902
lwrist 9.94427
lhand -37.1562 21.4668
lfingers 7.12502
lthumb -10.2253 -308.802
rfemur 6.7353 20.9203 29.0053
rtibia 0.348965
rfoot -30.2752 -25.2291
rtoes 6.6814
lfemur 2.8975 -23.5315 -17.945
ltibia 7.60871
lfoot -36.8625 -3.89864
ltoes -24.6274
154
root 5.12234 16.0738 0.00306735 148.409 -83.2744 -146.064
lowerback 6.2078 1.54213 2.1665
upperback -9.95362 2.29801 1.88431
thorax -14.4287 0.854227 0.48594
lowerneck -11.7792 -1.67518 -2.9434
upperneck 35.1624 -2.7192 -1.13202
head 13.9547 -2.26064 -0.480189
rclavicle -3.37934e-015 1.68967e-014
rhumerus 14.9585 30.019 -30.3332
rradius 84.9916
rwrist -48.7885
rhand -32.3328 -16.1979
rfingers 7.12502
rthumb -5.57007 -46.1047
lclavicle -3.37934e-015 1.68967e-014
lhumerus 8.65849 -33.04 39.098
lradius 88.6361
lwrist 2.61248
lhand -36.1572 18.9075
lfingers 7.12502
lthumb -9.26146 -311.316
rfemur 6.42317 20.9169 28.8349
rtibia 0.435748
rfoot -30.1432 -25.1489
rtoes 6.40205
lfemur 2.63623 -23.4232 -17.846
ltibia 7.65031
lfoot -36.8565 -3.54061
ltoes -25.5233
155
root 5.12382 16.0712 0.00516339 149.003 -83.1513 -146.444
lowerback 6.22311 1.52056 2.05758
upperback -9.897 2.26929 2.00459
thorax -14.3808 0.86242 0.684478
lowerneck -12.3781 -1.73644 -2.76553
upperneck 34.8421 -2.6861 -1.37886
head 13.9364 -2.22938 -0.604862
rclavicle 1.70458e-014 2.16675e-014
rhumerus 13.9879 37.9844 -25.6202
rradius 85.7797
rwrist -45.2903
rhand -30.7145 -16.8422
rfingers 7.12502
rthumb -4.00741 -46.7843
lclavicle 1.70458e-014 2.16675e-014
lhumerus 5.31424 -39.4065 37.5655
lradius 89.9787
lwrist -6.24217
lhand -36.8555 17.9418
lfingers 7.12502
lthumb -9.93522 -312.313
rfemur 6.07943 20.8773 28.7265
rtibia 0.512654
rfoot -29.8657 -25.147
rtoes 5.73705
lfemur 2.36976 -23.2619 -17.6513
ltibia 7.68266
lfoot -36.8463 -3.2424
ltoes -26.1569
156
root 5.12413 16.07 0.00660986 150.143 -82.9954 -147.333
lowerback 6.3393 1.52511 1.93458
upperback -9.82222 2.2741 2.0665
thorax -14.3731 0.884536 0.817644
lowerneck -13.0737 -1.79882 -2.596
upperneck 34.3387 -2.69764 -1.42821
head 13.8616 -2.18256 -0.651192
rclavicle 5.01931e-015 6.36111e-015
rhumerus 12.9799 45.3256 -21.4173
rradius 87.1662
rwrist -39.9935
rhand -31.6074 -16.9468
rfingers 7.12502
rthumb -4.86962 -46.8709
lclavicle 5.01931e-015 6.36111e-015
lhumerus 1.71938 -45.4161 36.3724
lradius 91.6635
lwrist -14.2492
lhand -37.181 15.7355
lfingers 7.12502
lthumb -10.2492 -314.534
rfemur 5.66834 20.8729 28.566
rtibia 0.611109
rfoot -29.4313 -25.2865
rtoes 4.76114
lfemur 2.1083 -23.0807 -17.5181
ltibia 7.71105
lfoot -36.9028 -3.02128
ltoes -26.4519
157
root 5.12275 16.0724 0.0101218 152.08 -82.8923 -148.898
lowerback 6.40716 1.5764 1.85595
upperback -9.73387 2.33013 1.96713
thorax -14.3077 0.916264 0.738307
lowerneck -13.7396 -1.86459 -2.63269
upperneck 33.5886 -2.81855 -0.948489
head 13.6861 -2.12862 -0.460472
rclavicle 8.00108e-015 2.82274e-014
rhumerus 11.1214 51.9065 -18.5194
rradius 88.6919
rwrist -32.7048
rhand -31.3164 -14.4076
rfingers 7.12502
rthumb -4.58862 -44.3379
lclavicle 8.00108e-015 2.82274e-014
lhumerus -2.21429 -50.6927 35.5848
lradius 93.5835
lwrist -21.8426
lhand -37.0142 11.311
lfingers 7.12502
lthumb -10.0884 -318.951
rfemur 5.1224 20.9218 28.2387
rtibia 0.709679
rfoot -29.0655 -25.3708
rtoes 4.16304
lfemur 1.71591 -23.0075 -17.5062
ltibia 7.70345
lfoot -37.0206 -3.23692
ltoes -25.8071
